#Comment line ignore any data following # character 
#Hierarchical Translation and Rotation (.htr) file 
[Header]	
#Header keywords are followed by a single value 
FileType HTR		#Single word string
DataType HTRS		#Translation followed by rotation and scale data
FileVersion 1		#integer
NumSegments 84		#integer
NumFrames 2		#integer
DataFrameRate 30		#integer, data frame rate in this file
EulerRotationOrder ZYX
CalibrationUnits mm
RotationUnits Degrees
GlobalAxisofGravity Y
BoneLengthAxis Y
ScaleFactor 1.00
[SegmentNames&Hierarchy]
#CHILD	PARENT
MASTER GLOBAL
root MASTER
chest root
L_mid_tent01 root
R_mid_tent01 root
spine01 root
Bip01_Neck chest
L_humerus chest
R_humerus chest
weapon_bone chest
Bip01_Head Bip01_Neck
eye_left_bone Bip01_Head
eye_right_bone Bip01_Head
L_forearm L_humerus
L_front_hand L_forearm
L_weapon_bone L_forearm
L_front_hand01_01 L_front_hand
L_front_hand02_01 L_front_hand
L_front_hand03_01 L_front_hand
L_front_hand01_02 L_front_hand01_01
L_front_hand02_02 L_front_hand02_01
L_front_hand03_02 L_front_hand03_01
R_forearm R_humerus
R_front_hand R_forearm
R_weapon_bone R_forearm
R_front_hand01_01 R_front_hand
R_front_hand02_01 R_front_hand
R_front_hand03_01 R_front_hand
R_front_hand01_02 R_front_hand01_01
R_front_hand02_02 R_front_hand02_01
R_front_hand03_02 R_front_hand03_01
null_rope01_connect L_mid_tent01
Rope1_Seg01 null_rope01_connect
Rope1_Seg02 Rope1_Seg01
Rope1_Seg03 Rope1_Seg02
Rope1_Seg04 Rope1_Seg03
Rope1_Seg05 Rope1_Seg04
Rope1_Seg06 Rope1_Seg05
Rope1_Seg07 Rope1_Seg06
Rope1_Seg09 Rope1_Seg07
L_mid_hand01 Rope1_Seg09
L_mid_hand02 Rope1_Seg09
L_mid_hand03 Rope1_Seg09
null_rope02_connect R_mid_tent01
Rope2_Seg01 null_rope02_connect
Rope2_Seg02 Rope2_Seg01
Rope2_Seg03 Rope2_Seg02
Rope2_Seg04 Rope2_Seg03
Rope2_Seg05 Rope2_Seg04
Rope2_Seg06 Rope2_Seg05
Rope2_Seg07 Rope2_Seg06
Rope2_Seg09 Rope2_Seg07
R_mid_hand01 Rope2_Seg09
R_mid_hand02 Rope2_Seg09
R_mid_hand03 Rope2_Seg09
spine02 spine01
spine03 spine02
pelvis spine03
null_rope03_connect pelvis
null_rope04_connect pelvis
Rope3_Seg01 null_rope03_connect
Rope3_Seg02 Rope3_Seg01
Rope3_Seg03 Rope3_Seg02
Rope3_Seg04 Rope3_Seg03
Rope3_Seg05 Rope3_Seg04
Rope3_Seg06 Rope3_Seg05
Rope3_Seg07 Rope3_Seg06
Rope3_Seg08 Rope3_Seg07
Rope3_Seg09 Rope3_Seg08
R_rear_hand01 Rope3_Seg09
R_rear_hand02 Rope3_Seg09
R_rear_hand03 Rope3_Seg09
Rope4_Seg01 null_rope04_connect
Rope4_Seg02 Rope4_Seg01
Rope4_Seg03 Rope4_Seg02
Rope4_Seg04 Rope4_Seg03
Rope4_Seg05 Rope4_Seg04
Rope4_Seg06 Rope4_Seg05
Rope4_Seg07 Rope4_Seg06
Rope4_Seg08 Rope4_Seg07
Rope4_Seg09 Rope4_Seg08
L_rear_hand01 Rope4_Seg09
L_rear_hand02 Rope4_Seg09
L_rear_hand03 Rope4_Seg09
[BasePosition]
#SegmentName Tx, Ty, Tz, Rx, Ry, Rz, BoneLength
MASTER 0.000000 0.000000 0.000000 -90.000000 0.000000 0.000000 10.000000 
root 0.000000 0.000000 0.000000 0.000000 0.000000 0.000000 10.000000 
chest 0.000000 0.000000 0.000000 0.000000 0.000000 0.000000 10.000000 
L_mid_tent01 0.000000 0.000000 0.000000 0.000000 0.000000 0.000000 10.000000 
R_mid_tent01 0.000000 0.000000 0.000000 0.000000 0.000000 0.000000 10.000000 
spine01 0.000000 0.000000 0.000000 0.000000 0.000000 0.000000 10.000000 
Bip01_Neck 0.000000 0.000000 0.000000 0.000000 0.000000 0.000000 10.000000 
L_humerus 0.000000 0.000000 0.000000 0.000000 0.000000 0.000000 10.000000 
R_humerus 0.000000 0.000000 0.000000 0.000000 0.000000 0.000000 10.000000 
weapon_bone 0.000000 0.000000 0.000000 0.000000 0.000000 0.000000 10.000000 
Bip01_Head 0.000000 0.000000 0.000000 0.000000 0.000000 0.000000 10.000000 
eye_left_bone 0.000000 0.000000 0.000000 0.000000 0.000000 0.000000 10.000000 
eye_right_bone 0.000000 0.000000 0.000000 0.000000 0.000000 0.000000 10.000000 
L_forearm 0.000000 0.000000 0.000000 0.000000 0.000000 0.000000 10.000000 
L_front_hand 0.000000 0.000000 0.000000 0.000000 0.000000 0.000000 10.000000 
L_weapon_bone 0.000000 0.000000 0.000000 0.000000 0.000000 0.000000 10.000000 
L_front_hand01_01 0.000000 0.000000 0.000000 0.000000 0.000000 0.000000 10.000000 
L_front_hand02_01 0.000000 0.000000 0.000000 0.000000 0.000000 0.000000 10.000000 
L_front_hand03_01 0.000000 0.000000 0.000000 0.000000 0.000000 0.000000 10.000000 
L_front_hand01_02 0.000000 0.000000 0.000000 0.000000 0.000000 0.000000 10.000000 
L_front_hand02_02 0.000000 0.000000 0.000000 0.000000 0.000000 0.000000 10.000000 
L_front_hand03_02 0.000000 0.000000 0.000000 0.000000 0.000000 0.000000 10.000000 
R_forearm 0.000000 0.000000 0.000000 0.000000 0.000000 0.000000 10.000000 
R_front_hand 0.000000 0.000000 0.000000 0.000000 0.000000 0.000000 10.000000 
R_weapon_bone 0.000000 0.000000 0.000000 0.000000 0.000000 0.000000 10.000000 
R_front_hand01_01 0.000000 0.000000 0.000000 0.000000 0.000000 0.000000 10.000000 
R_front_hand02_01 0.000000 0.000000 0.000000 0.000000 0.000000 0.000000 10.000000 
R_front_hand03_01 0.000000 0.000000 0.000000 0.000000 0.000000 0.000000 10.000000 
R_front_hand01_02 0.000000 0.000000 0.000000 0.000000 0.000000 0.000000 10.000000 
R_front_hand02_02 0.000000 0.000000 0.000000 0.000000 0.000000 0.000000 10.000000 
R_front_hand03_02 0.000000 0.000000 0.000000 0.000000 0.000000 0.000000 10.000000 
null_rope01_connect 0.000000 0.000000 0.000000 0.000000 0.000000 0.000000 10.000000 
Rope1_Seg01 0.000000 0.000000 0.000000 0.000000 0.000000 0.000000 10.000000 
Rope1_Seg02 0.000000 0.000000 0.000000 0.000000 0.000000 0.000000 10.000000 
Rope1_Seg03 0.000000 0.000000 0.000000 0.000000 0.000000 0.000000 10.000000 
Rope1_Seg04 0.000000 0.000000 0.000000 0.000000 0.000000 0.000000 10.000000 
Rope1_Seg05 0.000000 0.000000 0.000000 0.000000 0.000000 0.000000 10.000000 
Rope1_Seg06 0.000000 0.000000 0.000000 0.000000 0.000000 0.000000 10.000000 
Rope1_Seg07 0.000000 0.000000 0.000000 0.000000 0.000000 0.000000 10.000000 
Rope1_Seg09 0.000000 0.000000 0.000000 0.000000 0.000000 0.000000 10.000000 
L_mid_hand01 0.000000 0.000000 0.000000 0.000000 0.000000 0.000000 10.000000 
L_mid_hand02 0.000000 0.000000 0.000000 0.000000 0.000000 0.000000 10.000000 
L_mid_hand03 0.000000 0.000000 0.000000 0.000000 0.000000 0.000000 10.000000 
null_rope02_connect 0.000000 0.000000 0.000000 0.000000 0.000000 0.000000 10.000000 
Rope2_Seg01 0.000000 0.000000 0.000000 0.000000 0.000000 0.000000 10.000000 
Rope2_Seg02 0.000000 0.000000 0.000000 0.000000 0.000000 0.000000 10.000000 
Rope2_Seg03 0.000000 0.000000 0.000000 0.000000 0.000000 0.000000 10.000000 
Rope2_Seg04 0.000000 0.000000 0.000000 0.000000 0.000000 0.000000 10.000000 
Rope2_Seg05 0.000000 0.000000 0.000000 0.000000 0.000000 0.000000 10.000000 
Rope2_Seg06 0.000000 0.000000 0.000000 0.000000 0.000000 0.000000 10.000000 
Rope2_Seg07 0.000000 0.000000 0.000000 0.000000 0.000000 0.000000 10.000000 
Rope2_Seg09 0.000000 0.000000 0.000000 0.000000 0.000000 0.000000 10.000000 
R_mid_hand01 0.000000 0.000000 0.000000 0.000000 0.000000 0.000000 10.000000 
R_mid_hand02 0.000000 0.000000 0.000000 0.000000 0.000000 0.000000 10.000000 
R_mid_hand03 0.000000 0.000000 0.000000 0.000000 0.000000 0.000000 10.000000 
spine02 0.000000 0.000000 0.000000 0.000000 0.000000 0.000000 10.000000 
spine03 0.000000 0.000000 0.000000 0.000000 0.000000 0.000000 10.000000 
pelvis 0.000000 0.000000 0.000000 0.000000 0.000000 0.000000 10.000000 
null_rope03_connect 0.000000 0.000000 0.000000 0.000000 0.000000 0.000000 10.000000 
null_rope04_connect 0.000000 0.000000 0.000000 0.000000 0.000000 0.000000 10.000000 
Rope3_Seg01 0.000000 0.000000 0.000000 0.000000 0.000000 0.000000 10.000000 
Rope3_Seg02 0.000000 0.000000 0.000000 0.000000 0.000000 0.000000 10.000000 
Rope3_Seg03 0.000000 0.000000 0.000000 0.000000 0.000000 0.000000 10.000000 
Rope3_Seg04 0.000000 0.000000 0.000000 0.000000 0.000000 0.000000 10.000000 
Rope3_Seg05 0.000000 0.000000 0.000000 0.000000 0.000000 0.000000 10.000000 
Rope3_Seg06 0.000000 0.000000 0.000000 0.000000 0.000000 0.000000 10.000000 
Rope3_Seg07 0.000000 0.000000 0.000000 0.000000 0.000000 0.000000 10.000000 
Rope3_Seg08 0.000000 0.000000 0.000000 0.000000 0.000000 0.000000 10.000000 
Rope3_Seg09 0.000000 0.000000 0.000000 0.000000 0.000000 0.000000 10.000000 
R_rear_hand01 0.000000 0.000000 0.000000 0.000000 0.000000 0.000000 10.000000 
R_rear_hand02 0.000000 0.000000 0.000000 0.000000 0.000000 0.000000 10.000000 
R_rear_hand03 0.000000 0.000000 0.000000 0.000000 0.000000 0.000000 10.000000 
Rope4_Seg01 0.000000 0.000000 0.000000 0.000000 0.000000 0.000000 10.000000 
Rope4_Seg02 0.000000 0.000000 0.000000 0.000000 0.000000 0.000000 10.000000 
Rope4_Seg03 0.000000 0.000000 0.000000 0.000000 0.000000 0.000000 10.000000 
Rope4_Seg04 0.000000 0.000000 0.000000 0.000000 0.000000 0.000000 10.000000 
Rope4_Seg05 0.000000 0.000000 0.000000 0.000000 0.000000 0.000000 10.000000 
Rope4_Seg06 0.000000 0.000000 0.000000 0.000000 0.000000 0.000000 10.000000 
Rope4_Seg07 0.000000 0.000000 0.000000 0.000000 0.000000 0.000000 10.000000 
Rope4_Seg08 0.000000 0.000000 0.000000 0.000000 0.000000 0.000000 10.000000 
Rope4_Seg09 0.000000 0.000000 0.000000 0.000000 0.000000 0.000000 10.000000 
L_rear_hand01 0.000000 0.000000 0.000000 0.000000 0.000000 0.000000 10.000000 
L_rear_hand02 0.000000 0.000000 0.000000 0.000000 0.000000 0.000000 10.000000 
L_rear_hand03 0.000000 0.000000 0.000000 0.000000 0.000000 0.000000 10.000000 
#Beginning of Data. Separated by tabs
#Fr	Tx	Ty	Tz	Rx	Ry	Rz	SF
[MASTER]
17 2451.104980 0.000370 0.000000 0.001660 0.001660 0.001660 2451.104736
18 2542.723389 0.000384 0.000000 0.001660 0.001660 0.001660 2542.723389
[root]
17 -16.502380 -62.822109 1113.056641 -54.069706 -27.679104 -73.896736 1114.950317
18 -16.502380 -62.822109 1151.048950 -71.913147 -27.673565 -72.144814 1152.880127
[chest]
17 -84.512650 -34.090519 0.000000 33.917469 -0.216083 -168.122757 91.129311
18 -84.512650 -34.090519 0.000000 17.985920 1.238177 -169.818100 91.129311
[L_mid_tent01]
17 27.459982 22.085705 -250.949585 -29.656883 4.514482 19.780836 253.411774
18 27.437057 22.098808 -250.802246 -29.180187 6.160440 21.582850 253.264511
[R_mid_tent01]
17 23.228794 24.509907 226.238495 -137.003235 -6.542137 7.495724 228.744751
18 23.228794 24.509907 226.238495 -136.024536 -1.268569 6.663013 228.744751
[spine01]
17 -0.361383 -0.195265 0.000000 37.141651 1.770748 -2.174264 0.410763
18 -0.361383 -0.195265 0.000000 38.164318 1.587963 -1.453488 0.410763
[Bip01_Neck]
17 165.484543 71.581718 0.000119 175.896118 1.177290 24.871183 180.302734
18 165.484543 71.581718 0.000119 175.896118 1.177290 24.871183 180.302734
[L_humerus]
17 -13.983130 -135.272980 -120.471481 170.940796 81.564224 -99.189163 181.680161
18 -13.983130 -135.272980 -120.471481 170.940796 81.564224 -99.189163 181.680161
[R_humerus]
17 -13.983309 -135.273102 125.287651 -159.666046 -68.957870 -101.166077 184.909012
18 -13.983309 -135.273102 125.287651 -159.666046 -68.957870 -101.166077 184.909012
[weapon_bone]
17 235.964890 -300.705902 0.000000 0.000000 -89.951546 -128.212341 382.234833
18 235.964890 -300.705902 0.000000 0.000000 -89.951546 -128.212341 382.234833
[Bip01_Head]
17 261.355865 108.959602 -2.864318 2.248029 5.843378 -62.458351 283.173615
18 261.355865 108.959610 -2.864325 2.248029 5.843377 -62.458344 283.173615
[eye_left_bone]
17 -24.626970 125.451866 -64.772606 0.000000 -90.000000 -99.840431 143.318359
18 -24.626970 125.451866 -64.772606 0.000000 -90.000000 -99.840431 143.318359
[eye_right_bone]
17 -24.626970 125.451866 64.327362 0.000000 -89.960434 80.159386 143.117676
18 -24.626970 125.451866 64.327362 0.000000 -89.960434 80.159386 143.117676
[L_forearm]
17 322.776093 0.000000 -0.000119 0.000471 0.002300 -66.859398 322.776093
18 322.776093 0.000000 -0.000119 0.000471 0.002300 -66.859383 322.776093
[L_front_hand]
17 241.149185 -0.042021 -3.300071 -178.667953 -1.835447 -27.422350 241.171753
18 241.149185 -0.042021 -3.300071 -178.667953 -1.835447 -27.422350 241.171753
[L_weapon_bone]
17 156.183838 0.000000 0.000000 0.001660 0.001660 0.001660 156.183838
18 156.183838 0.000000 0.000000 0.001660 0.001660 0.001660 156.183838
[L_front_hand01_01]
17 86.095154 20.947098 -0.655860 0.211241 -0.560884 17.357290 88.609184
18 86.095154 20.947098 -0.655860 0.171154 -0.573704 21.180222 88.609184
[L_front_hand02_01]
17 86.935165 -11.437475 24.513514 118.065666 -15.915234 -8.667751 91.046425
18 86.935165 -11.437475 24.513514 118.645042 -19.279860 -10.569485 91.046425
[L_front_hand03_01]
17 86.637497 -14.123976 -20.424902 -119.358360 14.637108 -10.761033 90.126129
18 86.637497 -14.123976 -20.424902 -119.911827 17.962019 -12.727839 90.126129
[L_front_hand01_02]
17 71.020905 -0.000179 0.000030 0.000922 0.002159 -43.760223 71.020905
18 71.020905 -0.000179 0.000030 0.000837 0.002193 -48.241432 71.020905
[L_front_hand02_02]
17 71.020927 -0.000119 0.000060 0.000922 0.002159 -43.760223 71.020927
18 71.020927 -0.000119 0.000060 0.000837 0.002193 -48.241432 71.020927
[L_front_hand03_02]
17 71.020905 -0.000060 0.000060 0.000922 0.002159 -43.760223 71.020905
18 71.020905 -0.000060 0.000060 0.000837 0.002193 -48.241432 71.020905
[R_forearm]
17 322.776428 -0.000060 0.000030 0.199694 -0.075621 -69.903069 322.776428
18 322.776428 -0.000060 0.000030 0.199694 -0.075621 -69.903069 322.776428
[R_front_hand]
17 238.847015 -0.006795 2.210259 -1.531694 0.790216 -51.443054 238.857239
18 238.847015 -0.006795 2.210259 -1.531694 0.790216 -51.443062 238.857239
[R_weapon_bone]
17 155.664093 0.002503 -0.000030 0.003487 0.001180 -90.988930 155.664078
18 155.664093 0.002503 -0.000030 0.003487 0.001180 -90.988930 155.664078
[R_front_hand01_01]
17 87.624611 14.231146 22.918642 -118.091415 -16.042309 8.845704 91.683487
18 87.624611 14.231146 22.918642 -118.669006 -19.407516 10.750248 91.683487
[R_front_hand02_01]
17 89.356956 14.367283 -19.491137 119.433098 15.033600 11.237807 92.579636
18 89.356956 14.367283 -19.491137 120.003609 18.355684 13.212110 92.579636
[R_front_hand03_01]
17 87.286232 -22.307278 -0.143439 -0.272309 -0.361186 -17.744339 90.091743
18 87.286232 -22.307278 -0.143439 -0.248554 -0.377927 -21.564304 90.091743
[R_front_hand01_02]
17 71.020905 0.000060 0.000119 0.002159 0.000922 43.758469 71.020905
18 71.020905 0.000060 0.000119 0.002193 0.000837 48.239647 71.020905
[R_front_hand02_02]
17 71.020844 -0.000030 -0.000119 0.002159 0.000922 43.758469 71.020836
18 71.020844 -0.000030 -0.000119 0.002193 0.000837 48.239647 71.020836
[R_front_hand03_02]
17 71.020905 0.000000 0.000030 0.002159 0.000922 43.758469 71.020905
18 71.020905 0.000000 0.000030 0.002193 0.000837 48.239647 71.020905
[null_rope01_connect]
17 328.732483 0.000000 -0.000238 82.834045 -65.456482 15.327518 328.732483
18 328.732483 0.000000 -0.000238 126.416023 -68.784744 -29.106455 328.732483
[Rope1_Seg01]
17 0.000000 0.000000 0.000000 -86.573174 68.294128 -84.108902 0.000000
18 0.000000 0.000000 0.000000 -127.289185 63.294518 -117.002876 0.000000
[Rope1_Seg02]
17 139.999863 -0.000179 0.000000 -11.365857 7.774554 19.294970 139.999863
18 139.999863 -0.000179 0.000000 -15.617869 5.667440 23.791754 139.999863
[Rope1_Seg03]
17 139.999924 0.000060 -0.000060 -6.746011 4.759608 28.519913 139.999924
18 139.999924 0.000060 -0.000060 -7.445891 -1.304845 29.339146 139.999924
[Rope1_Seg04]
17 139.999924 -0.000060 -0.000119 -0.477118 0.771001 21.339281 139.999924
18 139.999924 -0.000060 -0.000119 -0.871126 -3.001497 17.692774 139.999924
[Rope1_Seg05]
17 139.999832 0.000119 -0.000060 1.390162 0.011193 11.878739 139.999832
18 139.999832 0.000119 -0.000060 0.792815 -2.653539 11.529651 139.999832
[Rope1_Seg06]
17 139.999954 0.000119 -0.000060 2.613205 0.017635 11.468486 139.999954
18 139.999954 0.000119 -0.000060 2.013365 -2.794563 11.903640 139.999954
[Rope1_Seg07]
17 139.999985 0.000060 0.000000 3.453937 0.560798 9.594184 139.999985
18 139.999985 0.000060 0.000000 2.757123 -1.563868 8.948135 139.999985
[Rope1_Seg09]
17 121.602913 0.000119 -0.000089 -89.793175 -1.359789 0.847147 121.602913
18 121.602913 0.000119 -0.000089 -89.793175 -1.359789 0.847147 121.602913
[L_mid_hand01]
17 103.859421 1.038730 8.195221 104.645828 -11.341451 -3.472799 104.187431
18 103.859421 1.038730 8.195221 104.791466 -13.822902 -4.141279 104.187431
[L_mid_hand02]
17 105.572853 -4.139662 -10.864139 -136.851318 12.264257 -12.172828 106.211075
18 105.572853 -4.139662 -10.864139 -137.292099 14.014200 -14.102406 106.211075
[L_mid_hand03]
17 104.641464 17.579376 -3.913581 -18.441504 3.536872 14.376384 106.179977
18 104.641464 17.579376 -3.913581 -18.272455 4.345789 16.819996 106.179977
[null_rope02_connect]
17 328.732849 0.000179 -0.000119 -150.970657 3.035203 -65.843620 328.732849
18 328.732849 0.000179 -0.000119 -149.417969 19.802217 -68.903885 328.732849
[Rope2_Seg01]
17 0.000047 0.000101 0.000041 -17.580587 9.177580 -33.338104 0.000119
18 0.000053 0.000102 0.000037 111.505554 18.664625 -48.109425 0.000121
[Rope2_Seg02]
17 139.999741 -0.000060 -0.000119 -62.430717 11.610705 17.796482 139.999756
18 139.999741 -0.000060 -0.000119 104.673935 2.059379 -19.175789 139.999756
[Rope2_Seg03]
17 140.000107 0.000030 0.000000 -21.554754 -13.788052 25.456188 140.000107
18 140.000107 0.000030 0.000000 7.396999 -27.179817 4.914003 140.000107
[Rope2_Seg04]
17 139.999802 0.000000 -0.000060 -5.367136 -15.452466 14.216725 139.999802
18 139.999802 0.000000 -0.000060 0.132381 -20.627260 7.105333 139.999802
[Rope2_Seg05]
17 139.999985 -0.000060 0.000119 -2.007613 -14.829507 10.256911 139.999985
18 139.999985 -0.000060 0.000119 -0.021702 -18.487469 4.917257 139.999985
[Rope2_Seg06]
17 139.999893 -0.000030 -0.000119 -0.828872 -12.873500 8.364495 139.999893
18 139.999893 -0.000030 -0.000119 -0.782764 -16.047867 4.038620 139.999893
[Rope2_Seg07]
17 139.999893 0.000060 -0.000060 0.064259 -7.337357 4.900367 139.999893
18 139.999893 0.000060 -0.000060 -0.649138 -8.759357 2.343173 139.999893
[Rope2_Seg09]
17 121.338966 0.000089 -0.000060 33.793236 -1.359788 -0.847141 121.338966
18 121.338966 0.000089 -0.000060 33.793236 -1.359788 -0.847141 121.338966
[R_mid_hand01]
17 104.680779 11.144459 -10.335981 -46.201900 12.323607 14.293468 105.778534
18 104.680779 11.144459 -10.335981 -45.829594 13.966291 15.923307 105.778534
[R_mid_hand02]
17 104.070427 2.443552 8.231699 75.146904 -14.653768 4.372539 104.424065
18 104.070427 2.443552 8.231699 74.979683 -16.862888 4.983314 104.424065
[R_mid_hand03]
17 106.028137 -11.221827 -5.996406 -165.285202 5.858132 -18.535969 106.788818
18 106.028137 -11.221827 -5.996406 -165.527451 6.433964 -20.763390 106.788818
[spine02]
17 129.756927 0.001550 0.000119 -0.245322 -4.052059 -4.355546 129.756927
18 129.756927 0.001550 0.000119 -0.245322 -4.052060 -4.355547 129.756927
[spine03]
17 78.613640 0.087225 -4.898725 0.369659 4.260734 -4.885720 78.766167
18 78.613632 0.087231 -4.898720 0.369658 4.260732 -4.885719 78.766159
[pelvis]
17 169.435242 0.051022 0.000000 -0.010033 -0.192936 -1.867117 169.435257
18 169.435242 0.051022 0.000000 -0.010027 -0.192556 -1.874726 169.435257
[null_rope03_connect]
17 -1.257226 -2.466202 137.391083 30.798485 -8.534850 89.547279 137.418976
18 -1.257226 -2.466202 137.391083 35.714970 -23.855263 86.108932 137.418976
[null_rope04_connect]
17 -1.259640 -2.480268 -137.844437 30.798485 -8.534850 89.547279 137.872513
18 -1.259640 -2.480268 -137.844437 35.714970 -23.855263 86.108932 137.872513
[Rope3_Seg01]
17 0.000000 0.000000 0.000000 -60.427006 -58.936390 -164.072144 0.000000
18 0.000000 0.000000 0.000000 -53.234287 -74.050812 -171.440002 0.000000
[Rope3_Seg02]
17 139.999924 -0.000119 0.000060 2.044762 7.671141 -10.102329 139.999924
18 139.999924 -0.000119 0.000060 -1.147841 6.698472 -10.767689 139.999924
[Rope3_Seg03]
17 139.999924 -0.000119 0.000119 -0.828724 15.073609 -22.933186 139.999924
18 139.999924 -0.000119 0.000119 -7.767373 14.215112 -23.481674 139.999924
[Rope3_Seg04]
17 139.999924 0.000119 0.000000 -8.497490 16.807583 -29.399342 139.999924
18 139.999924 0.000119 0.000000 -17.157608 18.970907 -28.246717 139.999924
[Rope3_Seg05]
17 139.999924 -0.000238 0.000060 -11.735869 16.564810 -22.334949 139.999924
18 139.999924 -0.000238 0.000060 -15.729170 21.277500 -17.656822 139.999924
[Rope3_Seg06]
17 139.999893 -0.000119 -0.000060 -8.862837 14.069557 -13.015669 139.999893
18 139.999893 -0.000119 -0.000060 -8.135443 17.594482 -7.749730 139.999893
[Rope3_Seg07]
17 139.999771 0.000060 -0.000119 -3.270579 6.829234 -4.883684 139.999771
18 139.999771 0.000060 -0.000119 -2.261108 8.112612 -2.534263 139.999771
[Rope3_Seg08]
17 139.999985 -0.000060 0.000000 -1.244410 3.490211 -2.238371 139.999985
18 139.999985 -0.000060 0.000000 -0.617135 4.052174 -1.123785 139.999985
[Rope3_Seg09]
17 90.185997 -0.000179 -0.000060 89.793228 -1.359877 -0.847183 90.185997
18 90.185997 -0.000179 -0.000060 89.793228 -1.359877 -0.847183 90.185997
[R_rear_hand01]
17 103.366196 -6.073594 -10.757982 -156.890808 8.867678 -9.260687 104.101845
18 103.366196 -6.073594 -10.757982 -157.358185 10.054737 -12.115294 104.101845
[R_rear_hand02]
17 100.509819 12.039542 -7.992327 -38.311344 6.310308 10.942962 101.543350
18 100.509819 12.039542 -7.992327 -38.001770 8.202547 13.368593 101.543350
[R_rear_hand03]
17 101.539970 5.215704 5.435467 84.240326 -9.319661 4.797911 101.819031
18 101.539970 5.215704 5.435467 84.177414 -12.362664 5.114734 101.819031
[Rope4_Seg01]
17 0.000000 0.000000 0.000000 47.812672 -8.509103 -110.784935 0.000000
18 0.000000 0.000000 0.000000 50.195908 -16.713045 -114.066940 0.000000
[Rope4_Seg02]
17 139.999985 0.000060 0.000119 -1.687980 -17.616974 -22.055773 139.999985
18 139.999985 0.000060 0.000119 0.824061 -21.828321 -16.318785 139.999985
[Rope4_Seg03]
17 139.999924 0.000000 -0.000238 -60.083725 -25.701147 -52.408520 139.999924
18 139.999924 0.000000 -0.000238 -102.318703 -39.038597 -44.504238 139.999924
[Rope4_Seg04]
17 139.999985 0.000000 0.000119 -37.258472 14.052857 -19.302267 139.999985
18 139.999985 0.000000 0.000119 -34.116978 22.365194 -10.526096 139.999985
[Rope4_Seg05]
17 139.999802 -0.000060 -0.000119 -14.697867 7.086000 -9.750112 139.999802
18 139.999802 -0.000060 -0.000119 -11.162196 10.486333 -5.168402 139.999802
[Rope4_Seg06]
17 139.999924 0.000000 0.000060 -9.631993 6.454315 -6.719714 139.999924
18 139.999924 0.000000 0.000060 -6.460083 8.322813 -3.469029 139.999924
[Rope4_Seg07]
17 139.999802 0.000000 0.000000 -3.815088 4.789337 -2.223346 139.999802
18 139.999802 0.000000 0.000000 -1.956079 5.185860 -0.374114 139.999802
[Rope4_Seg08]
17 139.999924 0.000000 0.000119 -3.491901 2.965638 -1.147997 139.999924
18 139.999924 0.000000 0.000119 -2.495397 3.130777 -0.120980 139.999924
[Rope4_Seg09]
17 90.185791 0.000060 0.000060 -135.617828 2.228885 0.850567 90.185791
18 90.185791 0.000060 0.000060 -135.617828 2.228885 0.850567 90.185791
[L_rear_hand01]
17 101.696655 -8.392275 -7.654577 -38.541737 -4.340775 171.553604 102.329041
18 101.696655 -8.392275 -7.654577 -38.308769 -6.335740 169.028763 102.329041
[L_rear_hand02]
17 102.726799 -1.568258 5.773216 84.278557 6.160368 175.519302 102.900848
18 102.726799 -1.568258 5.773216 84.234558 9.357846 175.196030 102.900848
[L_rear_hand03]
17 104.552910 9.721220 -10.420293 -156.464783 -7.606923 -173.684799 105.519653
18 104.552910 9.721220 -10.420293 -156.893646 -8.879512 -170.705887 105.519653
